<svg width="18" height="13" viewBox="0 0 18 13" fill="none" xmlns="http://www.w3.org/2000/svg">
<path id="Vector" d="M6.09091 1.61111H17M6.09091 6.5H12.6364M6.09091 11.3889H17M2.45455 11.3889C2.45455 11.7264 2.12893 12 1.72727 12C1.32561 12 1 11.7264 1 11.3889C1 11.0514 1.32561 10.7778 1.72727 10.7778C2.12893 10.7778 2.45455 11.0514 2.45455 11.3889ZM2.45455 6.5C2.45455 6.83751 2.12893 7.11111 1.72727 7.11111C1.32561 7.11111 1 6.83751 1 6.5C1 6.16249 1.32561 5.88889 1.72727 5.88889C2.12893 5.88889 2.45455 6.16249 2.45455 6.5ZM2.45455 1.61111C2.45455 1.94862 2.12893 2.22222 1.72727 2.22222C1.32561 2.22222 1 1.94862 1 1.61111C1 1.2736 1.32561 1 1.72727 1C2.12893 1 2.45455 1.2736 2.45455 1.61111Z" stroke="#6B7D91" stroke-width="1.5" stroke-linecap="round"/>
</svg>
