<svg width="64" height="54" viewBox="0 0 64 54" fill="none"
    xmlns="http://www.w3.org/2000/svg">
    <path d="M7.93747 20.5133C8.26413 20.4638 8.59955 20.4375 8.9408 20.4375H55.0591C55.4004 20.4375 55.7358 20.4638 56.0625 20.5133M7.93747 20.5133C6.23053 20.7777 4.69663 21.7043 3.66849 23.0923C2.64035 24.4803 2.20087 26.2176 2.44538 27.9275L4.94497 45.4275C5.16821 46.9912 5.94799 48.422 7.14115 49.4571C8.33432 50.4922 9.8608 51.0622 11.4404 51.0625H52.5625C54.1421 51.0622 55.6685 50.4922 56.8617 49.4571C58.0549 48.422 58.8346 46.9912 59.0579 45.4275L61.5575 27.9275C61.802 26.2176 61.3625 24.4803 60.3344 23.0923C59.3062 21.7043 57.7694 20.7777 56.0625 20.5133M7.93747 20.5133L7.94038 9.5C7.94038 7.76002 8.63139 6.09127 9.86146 4.86064C11.0915 3.63002 12.76 2.93827 14.5 2.9375H25.8137C26.9736 2.93852 28.0857 3.40013 28.9054 4.22083L35.0946 10.4042C35.9142 11.2249 37.0263 11.6865 38.1862 11.6875H49.5C51.2405 11.6875 52.9096 12.3789 54.1404 13.6096C55.3711 14.8403 56.0625 16.5095 56.0625 18.25V20.5133" fill="url(#paint0_linear_2867_581)"/>
    <path d="M7.93747 20.5133C8.26413 20.4638 8.59955 20.4375 8.9408 20.4375H55.0591C55.4004 20.4375 55.7358 20.4638 56.0625 20.5133M7.93747 20.5133C6.23053 20.7777 4.69663 21.7043 3.66849 23.0923C2.64035 24.4803 2.20087 26.2176 2.44538 27.9275L4.94497 45.4275C5.16821 46.9912 5.94799 48.422 7.14115 49.4571C8.33432 50.4922 9.8608 51.0622 11.4404 51.0625H52.5625C54.1421 51.0622 55.6685 50.4922 56.8617 49.4571C58.0549 48.422 58.8346 46.9912 59.0579 45.4275L61.5575 27.9275C61.802 26.2176 61.3625 24.4803 60.3344 23.0923C59.3062 21.7043 57.7694 20.7777 56.0625 20.5133M7.93747 20.5133L7.94038 9.5C7.94038 7.76002 8.63139 6.09127 9.86146 4.86064C11.0915 3.63002 12.76 2.93827 14.5 2.9375H25.8137C26.9736 2.93852 28.0857 3.40013 28.9054 4.22083L35.0945 10.4042C35.9142 11.2249 37.0263 11.6865 38.1862 11.6875H49.5C51.2405 11.6875 52.9096 12.3789 54.1404 13.6096C55.3711 14.8403 56.0625 16.5095 56.0625 18.25V20.5133" stroke="url(#paint1_linear_2867_581)" stroke-width="4.375" stroke-linecap="round" stroke-linejoin="round"/>
    <defs>
        <linearGradient id="paint0_linear_2867_581" x1="8" y1="5" x2="57.1674" y2="52.0053" gradientUnits="userSpaceOnUse">
            <stop stop-color="white"/>
            <stop offset="0.490561" stop-color="#0798FF"/>
        </linearGradient>
        <linearGradient id="paint1_linear_2867_581" x1="32.0014" y1="2.9375" x2="32.0014" y2="51.0625" gradientUnits="userSpaceOnUse">
            <stop stop-color="#0095FF"/>
            <stop offset="1" stop-color="white"/>
        </linearGradient>
    </defs>
</svg>
