<!-- <svg xmlns="http://www.w3.org/2000/svg" viewBox="0 0 1422 800" opacity="0.3">
  <defs>
    <linearGradient x1="50%" y1="0%" x2="50%" y2="100%" id="oooscillate-grad">
      <stop stop-color="hsl(206, 75%, 49%)" stop-opacity="1" offset="0%"></stop>
      <stop stop-color="hsl(331, 90%, 56%)" stop-opacity="1" offset="100%"></stop>
    </linearGradient>
  </defs>
  <g stroke-width="1" stroke="url(#oooscillate-grad)" fill="none" stroke-linecap="round">
    <path d="M 0 448 Q 355.5 -100 711 400 Q 1066.5 900 1422 448" opacity="0.05"></path>
    <path d="M 0 420 Q 355.5 -100 711 400 Q 1066.5 900 1422 420" opacity="0.11"></path>
    <path d="M 0 392 Q 355.5 -100 711 400 Q 1066.5 900 1422 392" opacity="0.18"></path>
    <path d="M 0 364 Q 355.5 -100 711 400 Q 1066.5 900 1422 364" opacity="0.24"></path>
    <path d="M 0 336 Q 355.5 -100 711 400 Q 1066.5 900 1422 336" opacity="0.30"></path>
    <path d="M 0 308 Q 355.5 -100 711 400 Q 1066.5 900 1422 308" opacity="0.37"></path>
    <path d="M 0 280 Q 355.5 -100 711 400 Q 1066.5 900 1422 280" opacity="0.43"></path>
    <path d="M 0 252 Q 355.5 -100 711 400 Q 1066.5 900 1422 252" opacity="0.49"></path>
    <path d="M 0 224 Q 355.5 -100 711 400 Q 1066.5 900 1422 224" opacity="0.56"></path>
    <path d="M 0 196 Q 355.5 -100 711 400 Q 1066.5 900 1422 196" opacity="0.62"></path>
    <path d="M 0 168 Q 355.5 -100 711 400 Q 1066.5 900 1422 168" opacity="0.68"></path>
    <path d="M 0 140 Q 355.5 -100 711 400 Q 1066.5 900 1422 140" opacity="0.75"></path>
    <path d="M 0 112 Q 355.5 -100 711 400 Q 1066.5 900 1422 112" opacity="0.81"></path>
    <path d="M 0 84 Q 355.5 -100 711 400 Q 1066.5 900 1422 84" opacity="0.87"></path>
    <path d="M 0 56 Q 355.5 -100 711 400 Q 1066.5 900 1422 56" opacity="0.94"></path>
  </g>
</svg> -->



<svg xmlns="http://www.w3.org/2000/svg" version="1.1" width="1080px" height="1080px" style="shape-rendering:geometricPrecision; text-rendering:geometricPrecision; image-rendering:optimizeQuality; fill-rule:evenodd; clip-rule:evenodd"
  xmlns:xlink="http://www.w3.org/1999/xlink">
  <g>
    <path style="opacity:0.999" fill="#ff8513" d="M 286.5,198.5 C 455.167,198.333 623.834,198.5 792.5,199C 839.454,208.287 867.287,236.454 876,283.5C 876.667,454.167 876.667,624.833 876,795.5C 867.253,842.58 839.42,870.747 792.5,880C 623.833,880.667 455.167,880.667 286.5,880C 245.901,872.783 219.068,849.616 206,810.5C 204.683,805.9 203.683,801.234 203,796.5C 202.333,625.167 202.333,453.833 203,282.5C 212.316,236.018 240.149,208.018 286.5,198.5 Z"/>
  </g>
  <g>
    <path style="opacity:1" fill="#fffefe" d="M 370.5,341.5 C 407.835,341.333 445.168,341.5 482.5,342C 504.33,348.162 517.497,362.328 522,384.5C 522.667,419.167 522.667,453.833 522,488.5C 517.188,513.312 502.354,528.146 477.5,533C 443.5,533.667 409.5,533.667 375.5,533C 356.947,530.137 343.447,520.303 335,503.5C 332.482,498.463 331.148,493.13 331,487.5C 330.039,451.133 330.373,414.8 332,378.5C 338.522,359.476 351.355,347.143 370.5,341.5 Z"/>
  </g>
  <g>
    <path style="opacity:1" fill="#fffefe" d="M 596.5,341.5 C 633.835,341.333 671.168,341.5 708.5,342C 730.33,348.162 743.497,362.328 748,384.5C 748.667,419.167 748.667,453.833 748,488.5C 743.179,513.321 728.345,528.155 703.5,533C 669.167,533.667 634.833,533.667 600.5,533C 575.743,527.577 561.243,512.41 557,487.5C 556.333,453.167 556.333,418.833 557,384.5C 561.69,362.312 574.857,347.979 596.5,341.5 Z"/>
  </g>
  <g>
    <path style="opacity:1" fill="#fffefe" d="M 374.5,545.5 C 408.835,545.333 443.168,545.5 477.5,546C 501.912,550.745 516.745,565.245 522,589.5C 522.667,624.167 522.667,658.833 522,693.5C 517.91,716.256 504.743,730.756 482.5,737C 445.167,737.667 407.833,737.667 370.5,737C 347.799,730.632 334.632,715.798 331,692.5C 330.333,657.5 330.333,622.5 331,587.5C 337.238,564.76 351.738,550.76 374.5,545.5 Z"/>
  </g>
  <g>
    <path style="opacity:1" fill="#fffdfc" d="M 647.5,545.5 C 657.676,543.999 664.51,547.999 668,557.5C 668.5,580.164 668.667,602.831 668.5,625.5C 691.169,625.333 713.836,625.5 736.5,626C 747.683,630.543 750.85,638.377 746,649.5C 743.313,653.194 739.813,655.694 735.5,657C 713.169,657.5 690.836,657.667 668.5,657.5C 668.667,680.169 668.5,702.836 668,725.5C 662.639,736.509 654.472,739.342 643.5,734C 639.675,731.512 637.508,728.012 637,723.5C 636.5,701.503 636.333,679.503 636.5,657.5C 614.164,657.667 591.831,657.5 569.5,657C 557.527,651.874 554.36,643.374 560,631.5C 561.938,628.894 564.438,627.061 567.5,626C 590.498,625.5 613.498,625.333 636.5,625.5C 636.333,602.831 636.5,580.164 637,557.5C 638.963,552.044 642.463,548.044 647.5,545.5 Z"/>
  </g>
</svg>